<?xml version="1.0" encoding="utf-8" standalone="no"?>
<!DOCTYPE svg PUBLIC "-//W3C//DTD SVG 1.1//EN"
  "http://www.w3.org/Graphics/SVG/1.1/DTD/svg11.dtd">
<svg xmlns:xlink="http://www.w3.org/1999/xlink" width="216pt" height="324pt" viewBox="0 0 216 324" xmlns="http://www.w3.org/2000/svg" version="1.1">
 <metadata>
  <rdf:RDF xmlns:dc="http://purl.org/dc/elements/1.1/" xmlns:cc="http://creativecommons.org/ns#" xmlns:rdf="http://www.w3.org/1999/02/22-rdf-syntax-ns#">
   <cc:Work>
    <dc:type rdf:resource="http://purl.org/dc/dcmitype/StillImage"/>
    <dc:date>2025-05-08T13:26:48.782201</dc:date>
    <dc:format>image/svg+xml</dc:format>
    <dc:creator>
     <cc:Agent>
      <dc:title>Matplotlib v3.6.3, https://matplotlib.org/</dc:title>
     </cc:Agent>
    </dc:creator>
   </cc:Work>
  </rdf:RDF>
 </metadata>
 <defs>
  <style type="text/css">*{stroke-linejoin: round; stroke-linecap: butt}</style>
 </defs>
 <g id="figure_1">
  <g id="patch_1">
   <path d="M 0 324 
L 216 324 
L 216 0 
L 0 0 
z
" style="fill: #ffffff"/>
  </g>
  <g id="axes_1">
   <g id="patch_2">
    <path d="M 68.85 211.248 
C 71.06975 211.248 73.198884 209.814175 74.768484 207.262309 
C 76.338084 204.710443 77.22 201.248884 77.22 197.64 
C 77.22 194.031116 76.338084 190.569557 74.768484 188.017691 
C 73.198884 185.465825 71.06975 184.032 68.85 184.032 
C 66.63025 184.032 64.501116 185.465825 62.931516 188.017691 
C 61.361916 190.569557 60.48 194.031116 60.48 197.64 
C 60.48 201.248884 61.361916 204.710443 62.931516 207.262309 
C 64.501116 209.814175 66.63025 211.248 68.85 211.248 
z
" clip-path="url(#pfd8003c4b9)" style="stroke: #000000; stroke-linejoin: miter"/>
   </g>
   <g id="patch_3">
    <path d="M 96.75 165.888 
C 98.96975 165.888 101.098884 164.454175 102.668484 161.902309 
C 104.238084 159.350443 105.12 155.888884 105.12 152.28 
C 105.12 148.671116 104.238084 145.209557 102.668484 142.657691 
C 101.098884 140.105825 98.96975 138.672 96.75 138.672 
C 94.53025 138.672 92.401116 140.105825 90.831516 142.657691 
C 89.261916 145.209557 88.38 148.671116 88.38 152.28 
C 88.38 155.888884 89.261916 159.350443 90.831516 161.902309 
C 92.401116 164.454175 94.53025 165.888 96.75 165.888 
z
" clip-path="url(#pfd8003c4b9)" style="stroke: #000000; stroke-linejoin: miter"/>
   </g>
   <g id="patch_4">
    <path d="M 152.55 120.528 
C 154.76975 120.528 156.898884 119.094175 158.468484 116.542309 
C 160.038084 113.990443 160.92 110.528884 160.92 106.92 
C 160.92 103.311116 160.038084 99.849557 158.468484 97.297691 
C 156.898884 94.745825 154.76975 93.312 152.55 93.312 
C 150.33025 93.312 148.201116 94.745825 146.631516 97.297691 
C 145.061916 99.849557 144.18 103.311116 144.18 106.92 
C 144.18 110.528884 145.061916 113.990443 146.631516 116.542309 
C 148.201116 119.094175 150.33025 120.528 152.55 120.528 
z
" clip-path="url(#pfd8003c4b9)" style="stroke: #000000; stroke-linejoin: miter"/>
   </g>
   <g id="line2d_1">
    <path d="M 40.95 265.68 
L 40.95 84.24 
" clip-path="url(#pfd8003c4b9)" style="fill: none; stroke: #000000; stroke-width: 1.5; stroke-linecap: square"/>
   </g>
   <g id="line2d_2">
    <path d="M 68.85 265.68 
L 68.85 84.24 
" clip-path="url(#pfd8003c4b9)" style="fill: none; stroke: #000000; stroke-width: 1.5; stroke-linecap: square"/>
   </g>
   <g id="line2d_3">
    <path d="M 96.75 265.68 
L 96.75 84.24 
" clip-path="url(#pfd8003c4b9)" style="fill: none; stroke: #000000; stroke-width: 1.5; stroke-linecap: square"/>
   </g>
   <g id="line2d_4">
    <path d="M 124.65 265.68 
L 124.65 84.24 
" clip-path="url(#pfd8003c4b9)" style="fill: none; stroke: #000000; stroke-width: 1.5; stroke-linecap: square"/>
   </g>
   <g id="line2d_5">
    <path d="M 152.55 265.68 
L 152.55 84.24 
" clip-path="url(#pfd8003c4b9)" style="fill: none; stroke: #000000; stroke-width: 1.5; stroke-linecap: square"/>
   </g>
   <g id="line2d_6">
    <path d="M 180.45 265.68 
L 180.45 84.24 
" clip-path="url(#pfd8003c4b9)" style="fill: none; stroke: #000000; stroke-width: 1.5; stroke-linecap: square"/>
   </g>
   <g id="line2d_7">
    <path d="M 40.95 265.68 
L 180.45 265.68 
" clip-path="url(#pfd8003c4b9)" style="fill: none; stroke: #000000; stroke-width: 3; stroke-linecap: square"/>
   </g>
   <g id="line2d_8">
    <path d="M 40.95 220.32 
L 180.45 220.32 
" clip-path="url(#pfd8003c4b9)" style="fill: none; stroke: #000000; stroke-width: 1.5; stroke-linecap: square"/>
   </g>
   <g id="line2d_9">
    <path d="M 40.95 174.96 
L 180.45 174.96 
" clip-path="url(#pfd8003c4b9)" style="fill: none; stroke: #000000; stroke-width: 1.5; stroke-linecap: square"/>
   </g>
   <g id="line2d_10">
    <path d="M 40.95 129.6 
L 180.45 129.6 
" clip-path="url(#pfd8003c4b9)" style="fill: none; stroke: #000000; stroke-width: 1.5; stroke-linecap: square"/>
   </g>
   <g id="line2d_11">
    <path d="M 40.95 84.24 
L 180.45 84.24 
" clip-path="url(#pfd8003c4b9)" style="fill: none; stroke: #000000; stroke-width: 1.5; stroke-linecap: square"/>
   </g>
   <g id="text_1">
    <!-- × -->
    <g style="fill: #333333" transform="translate(35.084219 74.495125) scale(0.14 -0.14)">
     <defs>
      <path id="DejaVuSans-d7" d="M 4488 3438 
L 3059 2003 
L 4488 575 
L 4116 197 
L 2681 1631 
L 1247 197 
L 878 575 
L 2303 2003 
L 878 3438 
L 1247 3816 
L 2681 2381 
L 4116 3816 
L 4488 3438 
z
" transform="scale(0.015625)"/>
     </defs>
     <use xlink:href="#DejaVuSans-d7"/>
    </g>
   </g>
   <g id="text_2">
    <!-- ○ -->
    <g style="fill: #333333" transform="translate(118.5425 74.495125) scale(0.14 -0.14)">
     <defs>
      <path id="DejaVuSans-25cb" d="M 1756 3459 
Q 716 2859 716 1662 
Q 716 466 1756 -134 
Q 2272 -434 2791 -434 
Q 3313 -434 3828 -134 
Q 4869 466 4869 1662 
Q 4869 2859 3828 3459 
Q 3313 3759 2791 3759 
Q 2272 3759 1756 3459 
z
M 1572 -450 
Q 350 256 350 1662 
Q 350 3069 1572 3775 
Q 2181 4128 2791 4128 
Q 3403 4128 4013 3775 
Q 5234 3069 5234 1662 
Q 5234 256 4013 -450 
Q 3403 -803 2791 -803 
Q 2181 -803 1572 -450 
z
" transform="scale(0.015625)"/>
     </defs>
     <use xlink:href="#DejaVuSans-25cb"/>
    </g>
   </g>
   <g id="text_3">
    <!-- ○ -->
    <g style="fill: #333333" transform="translate(174.3425 74.495125) scale(0.14 -0.14)">
     <use xlink:href="#DejaVuSans-25cb"/>
    </g>
   </g>
   <g id="text_4">
    <!-- C -->
    <g style="fill: #333333" transform="translate(104.82875 61.439) scale(0.16 -0.16)">
     <defs>
      <path id="DejaVuSans-Bold-43" d="M 4288 256 
Q 3956 84 3597 -3 
Q 3238 -91 2847 -91 
Q 1681 -91 1000 561 
Q 319 1213 319 2328 
Q 319 3447 1000 4098 
Q 1681 4750 2847 4750 
Q 3238 4750 3597 4662 
Q 3956 4575 4288 4403 
L 4288 3438 
Q 3953 3666 3628 3772 
Q 3303 3878 2944 3878 
Q 2300 3878 1931 3465 
Q 1563 3053 1563 2328 
Q 1563 1606 1931 1193 
Q 2300 781 2944 781 
Q 3303 781 3628 887 
Q 3953 994 4288 1222 
L 4288 256 
z
" transform="scale(0.015625)"/>
     </defs>
     <use xlink:href="#DejaVuSans-Bold-43"/>
    </g>
   </g>
  </g>
 </g>
 <defs>
  <clipPath id="pfd8003c4b9">
   <rect x="27" y="38.88" width="167.4" height="249.48"/>
  </clipPath>
 </defs>
</svg>
