<?xml version="1.0" encoding="utf-8" standalone="no"?>
<!DOCTYPE svg PUBLIC "-//W3C//DTD SVG 1.1//EN"
  "http://www.w3.org/Graphics/SVG/1.1/DTD/svg11.dtd">
<svg xmlns:xlink="http://www.w3.org/1999/xlink" width="216pt" height="324pt" viewBox="0 0 216 324" xmlns="http://www.w3.org/2000/svg" version="1.1">
 <metadata>
  <rdf:RDF xmlns:dc="http://purl.org/dc/elements/1.1/" xmlns:cc="http://creativecommons.org/ns#" xmlns:rdf="http://www.w3.org/1999/02/22-rdf-syntax-ns#">
   <cc:Work>
    <dc:type rdf:resource="http://purl.org/dc/dcmitype/StillImage"/>
    <dc:date>2025-05-08T13:26:48.886748</dc:date>
    <dc:format>image/svg+xml</dc:format>
    <dc:creator>
     <cc:Agent>
      <dc:title>Matplotlib v3.6.3, https://matplotlib.org/</dc:title>
     </cc:Agent>
    </dc:creator>
   </cc:Work>
  </rdf:RDF>
 </metadata>
 <defs>
  <style type="text/css">*{stroke-linejoin: round; stroke-linecap: butt}</style>
 </defs>
 <g id="figure_1">
  <g id="patch_1">
   <path d="M 0 324 
L 216 324 
L 216 0 
L 0 0 
z
" style="fill: #ffffff"/>
  </g>
  <g id="axes_1">
   <g id="patch_2">
    <path d="M 68.85 165.888 
C 71.06975 165.888 73.198884 164.454175 74.768484 161.902309 
C 76.338084 159.350443 77.22 155.888884 77.22 152.28 
C 77.22 148.671116 76.338084 145.209557 74.768484 142.657691 
C 73.198884 140.105825 71.06975 138.672 68.85 138.672 
C 66.63025 138.672 64.501116 140.105825 62.931516 142.657691 
C 61.361916 145.209557 60.48 148.671116 60.48 152.28 
C 60.48 155.888884 61.361916 159.350443 62.931516 161.902309 
C 64.501116 164.454175 66.63025 165.888 68.85 165.888 
z
" clip-path="url(#p1c5a4ff2f2)" style="stroke: #000000; stroke-linejoin: miter"/>
   </g>
   <g id="patch_3">
    <path d="M 96.75 165.888 
C 98.96975 165.888 101.098884 164.454175 102.668484 161.902309 
C 104.238084 159.350443 105.12 155.888884 105.12 152.28 
C 105.12 148.671116 104.238084 145.209557 102.668484 142.657691 
C 101.098884 140.105825 98.96975 138.672 96.75 138.672 
C 94.53025 138.672 92.401116 140.105825 90.831516 142.657691 
C 89.261916 145.209557 88.38 148.671116 88.38 152.28 
C 88.38 155.888884 89.261916 159.350443 90.831516 161.902309 
C 92.401116 164.454175 94.53025 165.888 96.75 165.888 
z
" clip-path="url(#p1c5a4ff2f2)" style="stroke: #000000; stroke-linejoin: miter"/>
   </g>
   <g id="line2d_1">
    <path d="M 40.95 265.68 
L 40.95 84.24 
" clip-path="url(#p1c5a4ff2f2)" style="fill: none; stroke: #000000; stroke-width: 1.5; stroke-linecap: square"/>
   </g>
   <g id="line2d_2">
    <path d="M 68.85 265.68 
L 68.85 84.24 
" clip-path="url(#p1c5a4ff2f2)" style="fill: none; stroke: #000000; stroke-width: 1.5; stroke-linecap: square"/>
   </g>
   <g id="line2d_3">
    <path d="M 96.75 265.68 
L 96.75 84.24 
" clip-path="url(#p1c5a4ff2f2)" style="fill: none; stroke: #000000; stroke-width: 1.5; stroke-linecap: square"/>
   </g>
   <g id="line2d_4">
    <path d="M 124.65 265.68 
L 124.65 84.24 
" clip-path="url(#p1c5a4ff2f2)" style="fill: none; stroke: #000000; stroke-width: 1.5; stroke-linecap: square"/>
   </g>
   <g id="line2d_5">
    <path d="M 152.55 265.68 
L 152.55 84.24 
" clip-path="url(#p1c5a4ff2f2)" style="fill: none; stroke: #000000; stroke-width: 1.5; stroke-linecap: square"/>
   </g>
   <g id="line2d_6">
    <path d="M 180.45 265.68 
L 180.45 84.24 
" clip-path="url(#p1c5a4ff2f2)" style="fill: none; stroke: #000000; stroke-width: 1.5; stroke-linecap: square"/>
   </g>
   <g id="line2d_7">
    <path d="M 40.95 265.68 
L 180.45 265.68 
" clip-path="url(#p1c5a4ff2f2)" style="fill: none; stroke: #000000; stroke-width: 3; stroke-linecap: square"/>
   </g>
   <g id="line2d_8">
    <path d="M 40.95 220.32 
L 180.45 220.32 
" clip-path="url(#p1c5a4ff2f2)" style="fill: none; stroke: #000000; stroke-width: 1.5; stroke-linecap: square"/>
   </g>
   <g id="line2d_9">
    <path d="M 40.95 174.96 
L 180.45 174.96 
" clip-path="url(#p1c5a4ff2f2)" style="fill: none; stroke: #000000; stroke-width: 1.5; stroke-linecap: square"/>
   </g>
   <g id="line2d_10">
    <path d="M 40.95 129.6 
L 180.45 129.6 
" clip-path="url(#p1c5a4ff2f2)" style="fill: none; stroke: #000000; stroke-width: 1.5; stroke-linecap: square"/>
   </g>
   <g id="line2d_11">
    <path d="M 40.95 84.24 
L 180.45 84.24 
" clip-path="url(#p1c5a4ff2f2)" style="fill: none; stroke: #000000; stroke-width: 1.5; stroke-linecap: square"/>
   </g>
   <g id="text_1">
    <!-- ○ -->
    <g style="fill: #333333" transform="translate(34.8425 74.495125) scale(0.14 -0.14)">
     <defs>
      <path id="DejaVuSans-25cb" d="M 1756 3459 
Q 716 2859 716 1662 
Q 716 466 1756 -134 
Q 2272 -434 2791 -434 
Q 3313 -434 3828 -134 
Q 4869 466 4869 1662 
Q 4869 2859 3828 3459 
Q 3313 3759 2791 3759 
Q 2272 3759 1756 3459 
z
M 1572 -450 
Q 350 256 350 1662 
Q 350 3069 1572 3775 
Q 2181 4128 2791 4128 
Q 3403 4128 4013 3775 
Q 5234 3069 5234 1662 
Q 5234 256 4013 -450 
Q 3403 -803 2791 -803 
Q 2181 -803 1572 -450 
z
" transform="scale(0.015625)"/>
     </defs>
     <use xlink:href="#DejaVuSans-25cb"/>
    </g>
   </g>
   <g id="text_2">
    <!-- ○ -->
    <g style="fill: #333333" transform="translate(118.5425 74.495125) scale(0.14 -0.14)">
     <use xlink:href="#DejaVuSans-25cb"/>
    </g>
   </g>
   <g id="text_3">
    <!-- ○ -->
    <g style="fill: #333333" transform="translate(146.4425 74.495125) scale(0.14 -0.14)">
     <use xlink:href="#DejaVuSans-25cb"/>
    </g>
   </g>
   <g id="text_4">
    <!-- ○ -->
    <g style="fill: #333333" transform="translate(174.3425 74.495125) scale(0.14 -0.14)">
     <use xlink:href="#DejaVuSans-25cb"/>
    </g>
   </g>
   <g id="text_5">
    <!-- Em -->
    <g style="fill: #333333" transform="translate(96.89875 61.439) scale(0.16 -0.16)">
     <defs>
      <path id="DejaVuSans-Bold-45" d="M 588 4666 
L 3834 4666 
L 3834 3756 
L 1791 3756 
L 1791 2888 
L 3713 2888 
L 3713 1978 
L 1791 1978 
L 1791 909 
L 3903 909 
L 3903 0 
L 588 0 
L 588 4666 
z
" transform="scale(0.015625)"/>
      <path id="DejaVuSans-Bold-6d" d="M 3781 2919 
Q 3994 3244 4286 3414 
Q 4578 3584 4928 3584 
Q 5531 3584 5847 3212 
Q 6163 2841 6163 2131 
L 6163 0 
L 5038 0 
L 5038 1825 
Q 5041 1866 5042 1909 
Q 5044 1953 5044 2034 
Q 5044 2406 4934 2573 
Q 4825 2741 4581 2741 
Q 4263 2741 4089 2478 
Q 3916 2216 3909 1719 
L 3909 0 
L 2784 0 
L 2784 1825 
Q 2784 2406 2684 2573 
Q 2584 2741 2328 2741 
Q 2006 2741 1831 2477 
Q 1656 2213 1656 1722 
L 1656 0 
L 531 0 
L 531 3500 
L 1656 3500 
L 1656 2988 
Q 1863 3284 2130 3434 
Q 2397 3584 2719 3584 
Q 3081 3584 3359 3409 
Q 3638 3234 3781 2919 
z
" transform="scale(0.015625)"/>
     </defs>
     <use xlink:href="#DejaVuSans-Bold-45"/>
     <use xlink:href="#DejaVuSans-Bold-6d" x="68.310547"/>
    </g>
   </g>
  </g>
 </g>
 <defs>
  <clipPath id="p1c5a4ff2f2">
   <rect x="27" y="38.88" width="167.4" height="249.48"/>
  </clipPath>
 </defs>
</svg>
