<?xml version="1.0" encoding="utf-8" standalone="no"?>
<!DOCTYPE svg PUBLIC "-//W3C//DTD SVG 1.1//EN"
  "http://www.w3.org/Graphics/SVG/1.1/DTD/svg11.dtd">
<svg xmlns:xlink="http://www.w3.org/1999/xlink" width="216pt" height="324pt" viewBox="0 0 216 324" xmlns="http://www.w3.org/2000/svg" version="1.1">
 <metadata>
  <rdf:RDF xmlns:dc="http://purl.org/dc/elements/1.1/" xmlns:cc="http://creativecommons.org/ns#" xmlns:rdf="http://www.w3.org/1999/02/22-rdf-syntax-ns#">
   <cc:Work>
    <dc:type rdf:resource="http://purl.org/dc/dcmitype/StillImage"/>
    <dc:date>2025-05-08T13:26:48.940553</dc:date>
    <dc:format>image/svg+xml</dc:format>
    <dc:creator>
     <cc:Agent>
      <dc:title>Matplotlib v3.6.3, https://matplotlib.org/</dc:title>
     </cc:Agent>
    </dc:creator>
   </cc:Work>
  </rdf:RDF>
 </metadata>
 <defs>
  <style type="text/css">*{stroke-linejoin: round; stroke-linecap: butt}</style>
 </defs>
 <g id="figure_1">
  <g id="patch_1">
   <path d="M 0 324 
L 216 324 
L 216 0 
L 0 0 
z
" style="fill: #ffffff"/>
  </g>
  <g id="axes_1">
   <g id="patch_2">
    <path d="M 40.95 120.528 
C 43.16975 120.528 45.298884 119.094175 46.868484 116.542309 
C 48.438084 113.990443 49.32 110.528884 49.32 106.92 
C 49.32 103.311116 48.438084 99.849557 46.868484 97.297691 
C 45.298884 94.745825 43.16975 93.312 40.95 93.312 
C 38.73025 93.312 36.601116 94.745825 35.031516 97.297691 
C 33.461916 99.849557 32.58 103.311116 32.58 106.92 
C 32.58 110.528884 33.461916 113.990443 35.031516 116.542309 
C 36.601116 119.094175 38.73025 120.528 40.95 120.528 
z
" clip-path="url(#p2a98726ef8)" style="stroke: #000000; stroke-linejoin: miter"/>
   </g>
   <g id="patch_3">
    <path d="M 68.85 211.248 
C 71.06975 211.248 73.198884 209.814175 74.768484 207.262309 
C 76.338084 204.710443 77.22 201.248884 77.22 197.64 
C 77.22 194.031116 76.338084 190.569557 74.768484 188.017691 
C 73.198884 185.465825 71.06975 184.032 68.85 184.032 
C 66.63025 184.032 64.501116 185.465825 62.931516 188.017691 
C 61.361916 190.569557 60.48 194.031116 60.48 197.64 
C 60.48 201.248884 61.361916 204.710443 62.931516 207.262309 
C 64.501116 209.814175 66.63025 211.248 68.85 211.248 
z
" clip-path="url(#p2a98726ef8)" style="stroke: #000000; stroke-linejoin: miter"/>
   </g>
   <g id="patch_4">
    <path d="M 96.75 211.248 
C 98.96975 211.248 101.098884 209.814175 102.668484 207.262309 
C 104.238084 204.710443 105.12 201.248884 105.12 197.64 
C 105.12 194.031116 104.238084 190.569557 102.668484 188.017691 
C 101.098884 185.465825 98.96975 184.032 96.75 184.032 
C 94.53025 184.032 92.401116 185.465825 90.831516 188.017691 
C 89.261916 190.569557 88.38 194.031116 88.38 197.64 
C 88.38 201.248884 89.261916 204.710443 90.831516 207.262309 
C 92.401116 209.814175 94.53025 211.248 96.75 211.248 
z
" clip-path="url(#p2a98726ef8)" style="stroke: #000000; stroke-linejoin: miter"/>
   </g>
   <g id="patch_5">
    <path d="M 124.65 165.888 
C 126.86975 165.888 128.998884 164.454175 130.568484 161.902309 
C 132.138084 159.350443 133.02 155.888884 133.02 152.28 
C 133.02 148.671116 132.138084 145.209557 130.568484 142.657691 
C 128.998884 140.105825 126.86975 138.672 124.65 138.672 
C 122.43025 138.672 120.301116 140.105825 118.731516 142.657691 
C 117.161916 145.209557 116.28 148.671116 116.28 152.28 
C 116.28 155.888884 117.161916 159.350443 118.731516 161.902309 
C 120.301116 164.454175 122.43025 165.888 124.65 165.888 
z
" clip-path="url(#p2a98726ef8)" style="stroke: #000000; stroke-linejoin: miter"/>
   </g>
   <g id="patch_6">
    <path d="M 152.55 120.528 
C 154.76975 120.528 156.898884 119.094175 158.468484 116.542309 
C 160.038084 113.990443 160.92 110.528884 160.92 106.92 
C 160.92 103.311116 160.038084 99.849557 158.468484 97.297691 
C 156.898884 94.745825 154.76975 93.312 152.55 93.312 
C 150.33025 93.312 148.201116 94.745825 146.631516 97.297691 
C 145.061916 99.849557 144.18 103.311116 144.18 106.92 
C 144.18 110.528884 145.061916 113.990443 146.631516 116.542309 
C 148.201116 119.094175 150.33025 120.528 152.55 120.528 
z
" clip-path="url(#p2a98726ef8)" style="stroke: #000000; stroke-linejoin: miter"/>
   </g>
   <g id="patch_7">
    <path d="M 180.45 120.528 
C 182.66975 120.528 184.798884 119.094175 186.368484 116.542309 
C 187.938084 113.990443 188.82 110.528884 188.82 106.92 
C 188.82 103.311116 187.938084 99.849557 186.368484 97.297691 
C 184.798884 94.745825 182.66975 93.312 180.45 93.312 
C 178.23025 93.312 176.101116 94.745825 174.531516 97.297691 
C 172.961916 99.849557 172.08 103.311116 172.08 106.92 
C 172.08 110.528884 172.961916 113.990443 174.531516 116.542309 
C 176.101116 119.094175 178.23025 120.528 180.45 120.528 
z
" clip-path="url(#p2a98726ef8)" style="stroke: #000000; stroke-linejoin: miter"/>
   </g>
   <g id="line2d_1">
    <path d="M 40.95 265.68 
L 40.95 84.24 
" clip-path="url(#p2a98726ef8)" style="fill: none; stroke: #000000; stroke-width: 1.5; stroke-linecap: square"/>
   </g>
   <g id="line2d_2">
    <path d="M 68.85 265.68 
L 68.85 84.24 
" clip-path="url(#p2a98726ef8)" style="fill: none; stroke: #000000; stroke-width: 1.5; stroke-linecap: square"/>
   </g>
   <g id="line2d_3">
    <path d="M 96.75 265.68 
L 96.75 84.24 
" clip-path="url(#p2a98726ef8)" style="fill: none; stroke: #000000; stroke-width: 1.5; stroke-linecap: square"/>
   </g>
   <g id="line2d_4">
    <path d="M 124.65 265.68 
L 124.65 84.24 
" clip-path="url(#p2a98726ef8)" style="fill: none; stroke: #000000; stroke-width: 1.5; stroke-linecap: square"/>
   </g>
   <g id="line2d_5">
    <path d="M 152.55 265.68 
L 152.55 84.24 
" clip-path="url(#p2a98726ef8)" style="fill: none; stroke: #000000; stroke-width: 1.5; stroke-linecap: square"/>
   </g>
   <g id="line2d_6">
    <path d="M 180.45 265.68 
L 180.45 84.24 
" clip-path="url(#p2a98726ef8)" style="fill: none; stroke: #000000; stroke-width: 1.5; stroke-linecap: square"/>
   </g>
   <g id="line2d_7">
    <path d="M 40.95 265.68 
L 180.45 265.68 
" clip-path="url(#p2a98726ef8)" style="fill: none; stroke: #000000; stroke-width: 3; stroke-linecap: square"/>
   </g>
   <g id="line2d_8">
    <path d="M 40.95 220.32 
L 180.45 220.32 
" clip-path="url(#p2a98726ef8)" style="fill: none; stroke: #000000; stroke-width: 1.5; stroke-linecap: square"/>
   </g>
   <g id="line2d_9">
    <path d="M 40.95 174.96 
L 180.45 174.96 
" clip-path="url(#p2a98726ef8)" style="fill: none; stroke: #000000; stroke-width: 1.5; stroke-linecap: square"/>
   </g>
   <g id="line2d_10">
    <path d="M 40.95 129.6 
L 180.45 129.6 
" clip-path="url(#p2a98726ef8)" style="fill: none; stroke: #000000; stroke-width: 1.5; stroke-linecap: square"/>
   </g>
   <g id="line2d_11">
    <path d="M 40.95 84.24 
L 180.45 84.24 
" clip-path="url(#p2a98726ef8)" style="fill: none; stroke: #000000; stroke-width: 1.5; stroke-linecap: square"/>
   </g>
   <g id="text_1">
    <!-- F -->
    <g style="fill: #333333" transform="translate(105.235 61.439) scale(0.16 -0.16)">
     <defs>
      <path id="DejaVuSans-Bold-46" d="M 588 4666 
L 3834 4666 
L 3834 3756 
L 1791 3756 
L 1791 2888 
L 3713 2888 
L 3713 1978 
L 1791 1978 
L 1791 0 
L 588 0 
L 588 4666 
z
" transform="scale(0.015625)"/>
     </defs>
     <use xlink:href="#DejaVuSans-Bold-46"/>
    </g>
   </g>
  </g>
 </g>
 <defs>
  <clipPath id="p2a98726ef8">
   <rect x="27" y="38.88" width="167.4" height="249.48"/>
  </clipPath>
 </defs>
</svg>
