<?xml version="1.0" encoding="utf-8" standalone="no"?>
<!DOCTYPE svg PUBLIC "-//W3C//DTD SVG 1.1//EN"
  "http://www.w3.org/Graphics/SVG/1.1/DTD/svg11.dtd">
<svg xmlns:xlink="http://www.w3.org/1999/xlink" width="216pt" height="324pt" viewBox="0 0 216 324" xmlns="http://www.w3.org/2000/svg" version="1.1">
 <metadata>
  <rdf:RDF xmlns:dc="http://purl.org/dc/elements/1.1/" xmlns:cc="http://creativecommons.org/ns#" xmlns:rdf="http://www.w3.org/1999/02/22-rdf-syntax-ns#">
   <cc:Work>
    <dc:type rdf:resource="http://purl.org/dc/dcmitype/StillImage"/>
    <dc:date>2025-05-08T13:26:48.983042</dc:date>
    <dc:format>image/svg+xml</dc:format>
    <dc:creator>
     <cc:Agent>
      <dc:title>Matplotlib v3.6.3, https://matplotlib.org/</dc:title>
     </cc:Agent>
    </dc:creator>
   </cc:Work>
  </rdf:RDF>
 </metadata>
 <defs>
  <style type="text/css">*{stroke-linejoin: round; stroke-linecap: butt}</style>
 </defs>
 <g id="figure_1">
  <g id="patch_1">
   <path d="M 0 324 
L 216 324 
L 216 0 
L 0 0 
z
" style="fill: #ffffff"/>
  </g>
  <g id="axes_1">
   <g id="patch_2">
    <path d="M 40.95 211.248 
C 43.16975 211.248 45.298884 209.814175 46.868484 207.262309 
C 48.438084 204.710443 49.32 201.248884 49.32 197.64 
C 49.32 194.031116 48.438084 190.569557 46.868484 188.017691 
C 45.298884 185.465825 43.16975 184.032 40.95 184.032 
C 38.73025 184.032 36.601116 185.465825 35.031516 188.017691 
C 33.461916 190.569557 32.58 194.031116 32.58 197.64 
C 32.58 201.248884 33.461916 204.710443 35.031516 207.262309 
C 36.601116 209.814175 38.73025 211.248 40.95 211.248 
z
" clip-path="url(#p6c5e0d2fe8)" style="stroke: #000000; stroke-linejoin: miter"/>
   </g>
   <g id="patch_3">
    <path d="M 68.85 165.888 
C 71.06975 165.888 73.198884 164.454175 74.768484 161.902309 
C 76.338084 159.350443 77.22 155.888884 77.22 152.28 
C 77.22 148.671116 76.338084 145.209557 74.768484 142.657691 
C 73.198884 140.105825 71.06975 138.672 68.85 138.672 
C 66.63025 138.672 64.501116 140.105825 62.931516 142.657691 
C 61.361916 145.209557 60.48 148.671116 60.48 152.28 
C 60.48 155.888884 61.361916 159.350443 62.931516 161.902309 
C 64.501116 164.454175 66.63025 165.888 68.85 165.888 
z
" clip-path="url(#p6c5e0d2fe8)" style="stroke: #000000; stroke-linejoin: miter"/>
   </g>
   <g id="patch_4">
    <path d="M 180.45 211.248 
C 182.66975 211.248 184.798884 209.814175 186.368484 207.262309 
C 187.938084 204.710443 188.82 201.248884 188.82 197.64 
C 188.82 194.031116 187.938084 190.569557 186.368484 188.017691 
C 184.798884 185.465825 182.66975 184.032 180.45 184.032 
C 178.23025 184.032 176.101116 185.465825 174.531516 188.017691 
C 172.961916 190.569557 172.08 194.031116 172.08 197.64 
C 172.08 201.248884 172.961916 204.710443 174.531516 207.262309 
C 176.101116 209.814175 178.23025 211.248 180.45 211.248 
z
" clip-path="url(#p6c5e0d2fe8)" style="stroke: #000000; stroke-linejoin: miter"/>
   </g>
   <g id="line2d_1">
    <path d="M 40.95 265.68 
L 40.95 84.24 
" clip-path="url(#p6c5e0d2fe8)" style="fill: none; stroke: #000000; stroke-width: 1.5; stroke-linecap: square"/>
   </g>
   <g id="line2d_2">
    <path d="M 68.85 265.68 
L 68.85 84.24 
" clip-path="url(#p6c5e0d2fe8)" style="fill: none; stroke: #000000; stroke-width: 1.5; stroke-linecap: square"/>
   </g>
   <g id="line2d_3">
    <path d="M 96.75 265.68 
L 96.75 84.24 
" clip-path="url(#p6c5e0d2fe8)" style="fill: none; stroke: #000000; stroke-width: 1.5; stroke-linecap: square"/>
   </g>
   <g id="line2d_4">
    <path d="M 124.65 265.68 
L 124.65 84.24 
" clip-path="url(#p6c5e0d2fe8)" style="fill: none; stroke: #000000; stroke-width: 1.5; stroke-linecap: square"/>
   </g>
   <g id="line2d_5">
    <path d="M 152.55 265.68 
L 152.55 84.24 
" clip-path="url(#p6c5e0d2fe8)" style="fill: none; stroke: #000000; stroke-width: 1.5; stroke-linecap: square"/>
   </g>
   <g id="line2d_6">
    <path d="M 180.45 265.68 
L 180.45 84.24 
" clip-path="url(#p6c5e0d2fe8)" style="fill: none; stroke: #000000; stroke-width: 1.5; stroke-linecap: square"/>
   </g>
   <g id="line2d_7">
    <path d="M 40.95 265.68 
L 180.45 265.68 
" clip-path="url(#p6c5e0d2fe8)" style="fill: none; stroke: #000000; stroke-width: 3; stroke-linecap: square"/>
   </g>
   <g id="line2d_8">
    <path d="M 40.95 220.32 
L 180.45 220.32 
" clip-path="url(#p6c5e0d2fe8)" style="fill: none; stroke: #000000; stroke-width: 1.5; stroke-linecap: square"/>
   </g>
   <g id="line2d_9">
    <path d="M 40.95 174.96 
L 180.45 174.96 
" clip-path="url(#p6c5e0d2fe8)" style="fill: none; stroke: #000000; stroke-width: 1.5; stroke-linecap: square"/>
   </g>
   <g id="line2d_10">
    <path d="M 40.95 129.6 
L 180.45 129.6 
" clip-path="url(#p6c5e0d2fe8)" style="fill: none; stroke: #000000; stroke-width: 1.5; stroke-linecap: square"/>
   </g>
   <g id="line2d_11">
    <path d="M 40.95 84.24 
L 180.45 84.24 
" clip-path="url(#p6c5e0d2fe8)" style="fill: none; stroke: #000000; stroke-width: 1.5; stroke-linecap: square"/>
   </g>
   <g id="text_1">
    <!-- ○ -->
    <g style="fill: #333333" transform="translate(90.6425 74.495125) scale(0.14 -0.14)">
     <defs>
      <path id="DejaVuSans-25cb" d="M 1756 3459 
Q 716 2859 716 1662 
Q 716 466 1756 -134 
Q 2272 -434 2791 -434 
Q 3313 -434 3828 -134 
Q 4869 466 4869 1662 
Q 4869 2859 3828 3459 
Q 3313 3759 2791 3759 
Q 2272 3759 1756 3459 
z
M 1572 -450 
Q 350 256 350 1662 
Q 350 3069 1572 3775 
Q 2181 4128 2791 4128 
Q 3403 4128 4013 3775 
Q 5234 3069 5234 1662 
Q 5234 256 4013 -450 
Q 3403 -803 2791 -803 
Q 2181 -803 1572 -450 
z
" transform="scale(0.015625)"/>
     </defs>
     <use xlink:href="#DejaVuSans-25cb"/>
    </g>
   </g>
   <g id="text_2">
    <!-- ○ -->
    <g style="fill: #333333" transform="translate(118.5425 74.495125) scale(0.14 -0.14)">
     <use xlink:href="#DejaVuSans-25cb"/>
    </g>
   </g>
   <g id="text_3">
    <!-- ○ -->
    <g style="fill: #333333" transform="translate(146.4425 74.495125) scale(0.14 -0.14)">
     <use xlink:href="#DejaVuSans-25cb"/>
    </g>
   </g>
   <g id="text_4">
    <!-- G -->
    <g style="fill: #333333" transform="translate(104.13375 61.439) scale(0.16 -0.16)">
     <defs>
      <path id="DejaVuSans-Bold-47" d="M 4781 347 
Q 4331 128 3847 18 
Q 3363 -91 2847 -91 
Q 1681 -91 1000 561 
Q 319 1213 319 2328 
Q 319 3456 1012 4103 
Q 1706 4750 2913 4750 
Q 3378 4750 3804 4662 
Q 4231 4575 4609 4403 
L 4609 3438 
Q 4219 3659 3833 3768 
Q 3447 3878 3059 3878 
Q 2341 3878 1952 3476 
Q 1563 3075 1563 2328 
Q 1563 1588 1938 1184 
Q 2313 781 3003 781 
Q 3191 781 3352 804 
Q 3513 828 3641 878 
L 3641 1784 
L 2906 1784 
L 2906 2591 
L 4781 2591 
L 4781 347 
z
" transform="scale(0.015625)"/>
     </defs>
     <use xlink:href="#DejaVuSans-Bold-47"/>
    </g>
   </g>
  </g>
 </g>
 <defs>
  <clipPath id="p6c5e0d2fe8">
   <rect x="27" y="38.88" width="167.4" height="249.48"/>
  </clipPath>
 </defs>
</svg>
